<?xml version="1.0" standalone="no"?><!DOCTYPE svg PUBLIC "-//W3C//DTD SVG 1.1//EN" "http://www.w3.org/Graphics/SVG/1.1/DTD/svg11.dtd"><svg t="1531722840989" class="icon" style="" viewBox="0 0 1024 1024" version="1.1" xmlns="http://www.w3.org/2000/svg" p-id="5829" xmlns:xlink="http://www.w3.org/1999/xlink" width="16" height="16"><defs><style type="text/css"></style></defs><path d="M234.666667 490.666667h-153.6a25.6 25.6 0 1 0 0 51.2h153.6a25.6 25.6 0 1 0 0-51.2zM473.6 490.666667h-153.6a25.6 25.6 0 1 0 0 51.2h153.6a25.6 25.6 0 1 0 0-51.2zM934.4 490.666667h-136.533333a25.6 25.6 0 1 0 0 51.2h136.533333a25.6 25.6 0 1 0 0-51.2zM712.533333 490.666667h-153.6a25.6 25.6 0 1 0 0 51.2h153.6a25.6 25.6 0 1 0 0-51.2z" p-id="5830"></path></svg>